<svg width="55" height="55" viewBox="0 0 55 55" fill="none" xmlns="http://www.w3.org/2000/svg">
<circle cx="27.5" cy="27.5" r="27.5" fill="#079C72"/>
<path d="M23.0884 18.3333H31.7178C36.9824 18.3333 41.25 22.3627 41.25 27.331C41.25 30.9561 38.9791 34.0772 35.7112 35.5034V38.7824C35.7112 39.7905 35.3124 40.3333 34.7059 40.3333C34.2219 40.2867 33.7699 40.071 33.4293 39.724L29.5521 36.3287H23.0884C17.8265 36.3287 13.5561 32.2993 13.5561 27.331C13.5561 22.3627 17.8238 18.3333 23.0884 18.3333ZM23.0884 34.6726H30.1725L30.6433 35.0825L34.0496 38.0596V34.4151L35.0466 33.9803C37.8049 32.7756 39.5884 30.1641 39.5884 27.331C39.5884 23.2849 36.0574 19.9949 31.7178 19.9949H23.0884C18.7487 19.9949 15.2178 23.2849 15.2178 27.331C15.2178 31.3771 18.7487 34.6671 23.0884 34.6671V34.6726Z" fill="white"/>
<path d="M27.1307 26.2178C27.3557 26.217 27.5758 26.2829 27.7634 26.4072C27.9509 26.5315 28.0973 26.7086 28.1843 26.9161C28.2712 27.1236 28.2946 27.3523 28.2516 27.5731C28.2086 27.7939 28.1012 27.9971 27.9428 28.1568C27.7844 28.3166 27.5822 28.4258 27.3617 28.4707C27.1413 28.5156 26.9125 28.4942 26.7042 28.4091C26.4959 28.324 26.3176 28.1791 26.1917 27.9926C26.0657 27.8062 25.9979 27.5866 25.9967 27.3616C25.9977 27.0603 26.1172 26.7714 26.3294 26.5574C26.5416 26.3434 26.8294 26.2214 27.1307 26.2178Z" fill="white"/>
<path d="M32.7388 26.2179C32.9639 26.2148 33.1849 26.2785 33.3738 26.401C33.5627 26.5235 33.7109 26.6993 33.7999 26.9061C33.8888 27.113 33.9144 27.3415 33.8734 27.5629C33.8324 27.7843 33.7267 27.9885 33.5696 28.1498C33.4125 28.311 33.2111 28.4221 32.9909 28.4688C32.7707 28.5156 32.5415 28.496 32.3324 28.4124C32.1234 28.3289 31.9438 28.1853 31.8164 27.9996C31.689 27.814 31.6195 27.5948 31.6167 27.3697C31.6144 27.2203 31.6416 27.0718 31.6968 26.933C31.752 26.7941 31.834 26.6675 31.9383 26.5605C32.0426 26.4535 32.167 26.3681 32.3044 26.3093C32.4417 26.2505 32.5894 26.2194 32.7388 26.2179V26.2179Z" fill="white"/>
<path d="M21.5051 26.2179C21.7311 26.2147 21.953 26.279 22.1424 26.4025C22.3317 26.5259 22.48 26.703 22.5684 26.9111C22.6567 27.1192 22.681 27.3489 22.6383 27.5709C22.5955 27.7929 22.4876 27.9971 22.3283 28.1575C22.1691 28.3179 21.9656 28.4273 21.7439 28.4716C21.5222 28.5159 21.2924 28.4931 21.0837 28.4063C20.8749 28.3194 20.6968 28.1724 20.572 27.9839C20.4472 27.7954 20.3814 27.574 20.383 27.3479C20.384 27.0499 20.5023 26.7642 20.7123 26.5528C20.9223 26.3413 21.2071 26.221 21.5051 26.2179Z" fill="white"/>
</svg>
