<svg width="301" height="301" viewBox="0 0 301 301" fill="none" xmlns="http://www.w3.org/2000/svg">
<circle cx="150.5" cy="150.5" r="144.5" stroke="white" stroke-width="2"/>
<path d="M16.4878 198.386C19.7103 198.386 22.3227 200.999 22.3227 204.221C22.3227 207.428 19.7103 210.041 16.4878 210.041C13.281 210.041 10.6686 207.428 10.6686 204.221C10.6686 200.999 13.281 198.386 16.4878 198.386Z" fill="#30CD9A"/>
<path d="M51.5754 250.65C51.5754 253.873 48.963 256.485 45.7562 256.485C42.5337 256.485 39.9213 253.873 39.9213 250.65C39.9213 247.443 42.5337 244.831 45.7562 244.831C48.963 244.831 51.5754 247.443 51.5754 250.65Z" fill="#30CD9A"/>
<path d="M99.9439 284.83C99.7405 285.049 99.5841 285.315 99.4746 285.613C99.2399 286.238 99.3025 286.895 99.5841 287.458C98.7394 289.633 96.6432 291.181 94.1716 291.181C90.9491 291.181 88.3367 288.569 88.3367 285.362C88.3367 282.14 90.9491 279.527 94.1716 279.527C97.1907 279.527 99.6623 281.858 99.9439 284.83Z" fill="#30CD9A"/>
<path d="M151.472 288.96C154.679 288.96 157.292 291.572 157.292 294.779C157.292 298.002 154.679 300.614 151.472 300.614C148.25 300.614 145.637 298.002 145.637 294.779C145.637 291.572 148.25 288.96 151.472 288.96Z" fill="#30CD9A"/>
<path d="M207.428 279.527C210.635 279.527 213.247 282.14 213.247 285.362C213.247 288.569 210.635 291.181 207.428 291.181C204.205 291.181 201.593 288.569 201.593 285.362C201.593 282.14 204.205 279.527 207.428 279.527Z" fill="#30CD9A"/>
<path d="M261.663 250.65C261.663 253.873 259.05 256.485 255.828 256.485C252.621 256.485 250.009 253.873 250.009 250.65C250.009 247.443 252.621 244.831 255.828 244.831C259.05 244.831 261.663 247.443 261.663 250.65Z" fill="#30CD9A"/>
<path d="M285.096 198.386C288.303 198.386 290.915 200.999 290.915 204.221C290.915 207.428 288.303 210.041 285.096 210.041C281.874 210.041 279.261 207.428 279.261 204.221C279.261 200.999 281.874 198.386 285.096 198.386Z" fill="#30CD9A"/>
<path d="M294.795 144.183C298.002 144.183 300.614 146.795 300.614 150.002C300.614 153.224 298.002 155.837 294.795 155.837C291.572 155.837 288.96 153.224 288.96 150.002C288.96 146.795 291.572 144.183 294.795 144.183Z" fill="#30CD9A"/>
<path d="M285.096 91.7468C288.303 91.7468 290.915 94.3592 290.915 97.5661C290.915 100.789 288.303 103.401 285.096 103.401C281.874 103.401 279.261 100.789 279.261 97.5661C279.261 94.3592 281.874 91.7468 285.096 91.7468Z" fill="#30CD9A"/>
<path d="M255.828 45.3025C259.05 45.3025 261.663 47.9149 261.663 51.1217C261.663 54.3442 259.05 56.9566 255.828 56.9566C252.621 56.9566 250.009 54.3442 250.009 51.1217C250.009 47.9149 252.621 45.3025 255.828 45.3025Z" fill="#30CD9A"/>
<path d="M207.428 10.5906C210.635 10.5906 213.247 13.2186 213.247 16.4255C213.247 19.6323 210.635 22.2604 207.428 22.2604C204.205 22.2604 201.593 19.6323 201.593 16.4255C201.593 13.2186 204.205 10.5906 207.428 10.5906Z" fill="#30CD9A"/>
<path d="M157.292 5.81924C157.292 9.04173 154.679 11.6541 151.472 11.6541C148.25 11.6541 145.637 9.04173 145.637 5.81924C145.637 2.6124 148.25 0 151.472 0C154.679 0 157.292 2.6124 157.292 5.81924Z" fill="#30CD9A"/>
<path d="M94.1716 10.5906C97.3784 10.5906 99.9908 13.2186 99.9908 16.4255C99.9908 19.6323 97.3784 22.2604 94.1716 22.2604C90.9491 22.2604 88.3367 19.6323 88.3367 16.4255C88.3367 13.2186 90.9491 10.5906 94.1716 10.5906Z" fill="#30CD9A"/>
<path d="M45.7562 45.3025C48.963 45.3025 51.5754 47.9149 51.5754 51.1217C51.5754 54.3442 48.963 56.9566 45.7562 56.9566C42.5337 56.9566 39.9213 54.3442 39.9213 51.1217C39.9213 47.9149 42.5337 45.3025 45.7562 45.3025Z" fill="#30CD9A"/>
<path d="M22.3227 97.5661C22.3227 100.789 19.7103 103.401 16.4878 103.401C13.281 103.401 10.6686 100.789 10.6686 97.5661C10.6686 94.3592 13.281 91.7468 16.4878 91.7468C19.7103 91.7468 22.3227 94.3592 22.3227 97.5661Z" fill="#30CD9A"/>
<path d="M5.83489 144.183C9.04173 144.183 11.6541 146.795 11.6541 150.002C11.6541 153.224 9.04173 155.837 5.83489 155.837C2.6124 155.837 0 153.224 0 150.002C0 146.795 2.6124 144.183 5.83489 144.183Z" fill="#30CD9A"/>
<path d="M223.963 68.1725C220.537 70.5815 212.966 75.5091 202.109 80.202C192.739 62.5879 182.399 49.4633 177.08 43.2217C194.788 47.6487 210.791 56.3463 223.963 68.1725Z" fill="#30CD9A"/>
<path d="M260.646 147.968H221.288C220.74 124.222 213.231 102.306 204.299 84.4728C216.219 79.2793 224.275 73.8042 227.467 71.4578C247.427 90.996 260.004 118.027 260.646 147.968Z" fill="#30CD9A"/>
<path d="M203.267 218.77C215.375 224.166 223.165 229.704 225.245 231.268C211.996 243.533 195.758 252.621 177.737 257.252C183.447 250.447 193.975 236.806 203.267 218.77Z" fill="#30CD9A"/>
<path d="M221.303 152.662H260.646C260.02 181.977 247.944 208.523 228.671 227.968C227.592 227.107 219.27 220.678 205.41 214.483C213.92 196.9 220.881 175.641 221.303 152.662Z" fill="#30CD9A"/>
<path d="M152.661 152.662H216.61C216.188 174.922 209.399 195.571 201.124 212.637C188.468 207.475 171.949 202.923 152.661 202.501V152.662Z" fill="#30CD9A"/>
<path d="M198.965 216.939C185.903 242.156 170.369 258.518 170.103 258.8C170.088 258.831 170.072 258.862 170.056 258.894C164.394 259.91 158.574 260.505 152.661 260.63V207.193C170.932 207.615 186.763 211.996 198.965 216.939Z" fill="#30CD9A"/>
<path d="M95.1571 219.41C103.839 236.368 113.507 249.32 119.075 256.172C102.431 251.244 87.4138 242.5 75.04 230.955C77.5273 229.14 84.5511 224.275 95.1571 219.41Z" fill="#30CD9A"/>
<path d="M147.968 207.177V260.63C140.773 260.489 133.764 259.66 126.975 258.19C125.301 256.375 111.41 240.873 99.4277 217.533C111.974 212.293 128.602 207.522 147.968 207.177Z" fill="#30CD9A"/>
<path d="M216.595 147.968H152.661V95.8764C171.386 95.4853 187.467 91.2147 199.997 86.2559C208.711 103.588 216.032 124.894 216.595 147.968Z" fill="#30CD9A"/>
<path d="M170.103 42.4242C170.369 42.6902 184.98 58.0673 197.776 81.9857C185.731 86.7256 170.354 90.7928 152.661 91.1839V39.9839C158.434 40.0934 164.081 40.6722 169.603 41.6421C169.712 41.9236 169.884 42.1896 170.103 42.4242Z" fill="#30CD9A"/>
<path d="M147.968 39.9839V91.1839C129.04 90.8241 112.74 86.225 100.304 81.1097C111.489 59.835 124.003 45.4121 126.631 42.5024C133.514 40.985 140.663 40.1403 147.968 39.9839Z" fill="#30CD9A"/>
<path d="M118.763 44.5359C113.335 51.2311 104.308 63.3859 96.002 79.248C86.5222 74.9461 79.7801 70.5973 76.495 68.3134C88.4933 57.4884 102.885 49.2758 118.763 44.5359Z" fill="#30CD9A"/>
<path d="M147.968 95.8769V147.969H81.6571C82.1264 124.551 89.4474 102.916 98.1293 85.3804C111.004 90.7303 127.992 95.5171 147.968 95.8769Z" fill="#30CD9A"/>
<path d="M93.8275 83.5189C84.9266 101.571 77.4179 123.831 76.9643 147.969H39.9839C40.6096 118.106 53.1241 91.1371 73.0065 71.6145C76.1195 73.8828 83.3154 78.7321 93.8275 83.5189Z" fill="#30CD9A"/>
<path d="M147.968 152.662V202.485C127.585 202.829 110.3 207.772 97.3002 213.247C89.025 196.103 82.1733 175.235 81.6571 152.662H147.968Z" fill="#30CD9A"/>
<path d="M76.9643 152.662C77.4648 175.939 84.5199 197.464 93.0298 215.125C81.1879 220.584 73.6636 226.075 71.6299 227.639C52.561 208.226 40.594 181.82 39.9839 152.662H76.9643Z" fill="#30CD9A"/>
<path d="M170.103 258.8C170.369 258.519 185.903 242.156 198.965 216.939C186.763 211.996 170.933 207.616 152.661 207.193V260.63C158.574 260.505 164.394 259.911 170.057 258.894C170.072 258.863 170.088 258.831 170.103 258.8ZM197.776 81.9858C184.98 58.0675 170.369 42.6903 170.103 42.4244C169.884 42.1897 169.712 41.9238 169.603 41.6422C164.081 40.6723 158.434 40.0935 152.661 39.984V91.184C170.354 90.7929 185.731 86.7257 197.776 81.9858ZM203.267 218.769C193.975 236.806 183.447 250.447 177.737 257.251C195.758 252.621 211.996 243.532 225.246 231.268C223.165 229.704 215.375 224.166 203.267 218.769ZM202.109 80.2025C212.966 75.5096 220.537 70.582 223.963 68.173C210.791 56.3467 194.788 47.6492 177.08 43.2222C182.399 49.4638 192.739 62.5884 202.109 80.2025ZM216.595 147.969C216.032 124.895 208.711 103.589 199.997 86.2564C187.467 91.2153 171.386 95.4859 152.661 95.8769V147.969H216.595ZM201.124 212.637C209.399 195.571 216.188 174.922 216.611 152.661H152.661V202.501C171.949 202.923 188.469 207.475 201.124 212.637ZM204.299 84.4731C213.232 102.306 220.74 124.222 221.288 147.969H260.646C260.005 118.028 247.427 90.9963 227.467 71.458C224.276 73.8045 216.219 79.2796 204.299 84.4731ZM260.646 152.661H221.303C220.881 175.641 213.92 196.9 205.41 214.483C219.27 220.678 227.592 227.107 228.671 227.968C247.944 208.523 260.02 181.977 260.646 152.661ZM71.63 66.4366C92.232 47.1017 119.905 35.2285 150.315 35.2285C213.763 35.2285 265.386 86.8508 265.386 150.315C265.386 213.764 213.763 265.386 150.315 265.386C86.8507 265.386 35.2284 213.764 35.2284 150.315C35.2284 117.683 48.9005 88.1962 70.8009 67.2344C70.8478 67.1718 70.8791 67.0936 70.9417 67.0154C71.1294 66.7651 71.3797 66.5774 71.63 66.4366ZM93.0298 215.125C84.5199 197.463 77.4649 175.938 76.9643 152.661H39.9839C40.594 181.82 52.561 208.226 71.63 227.639C73.6636 226.075 81.1879 220.584 93.0298 215.125ZM76.9643 147.969C77.4179 123.831 84.9266 101.571 93.8276 83.5189C83.3154 78.7321 76.1195 73.8827 73.0066 71.6144C53.1241 91.1371 40.6096 118.106 39.9839 147.969H76.9643ZM96.002 79.2483C104.308 63.3862 113.335 51.2314 118.763 44.5362C102.885 49.276 88.4933 57.4887 76.495 68.3137C79.78 70.5976 86.5222 74.9464 96.002 79.2483ZM119.076 256.172C113.507 249.32 103.839 236.368 95.1572 219.411C84.5512 224.276 77.5274 229.141 75.0402 230.955C87.4139 242.5 102.431 251.245 119.076 256.172ZM126.631 42.5026C124.003 45.4122 111.489 59.8352 100.304 81.1098C112.74 86.2251 129.04 90.8242 147.968 91.184V39.984C140.663 40.1405 133.514 40.9852 126.631 42.5026ZM97.3003 213.247C110.3 207.772 127.585 202.829 147.968 202.485V152.661H81.6572C82.1734 175.235 89.0251 196.102 97.3003 213.247ZM99.4278 217.534C111.41 240.873 125.302 256.375 126.975 258.19C133.764 259.661 140.773 260.49 147.968 260.63V207.178C128.602 207.522 111.974 212.293 99.4278 217.534ZM147.968 147.969V95.8769C127.992 95.5171 111.004 90.7304 98.1294 85.3804C89.4475 102.916 82.1265 124.551 81.6572 147.969H147.968Z" fill="#05A678"/>
</svg>
