<svg width="848" height="670" viewBox="0 0 848 670" fill="none" xmlns="http://www.w3.org/2000/svg">
<path d="M1053.2 632.71C1053.66 631.63 1053.89 630.395 1053.89 629.082V9.72569C1053.89 4.39972 1049.57 0 1044.17 0H122.231C116.905 0 112.506 4.32253 112.506 9.72569V629.082C112.506 630.395 112.737 631.552 113.2 632.71H0.814697V653.165C0.814697 653.165 37.2474 671.073 119.298 669.143L1087.62 668.139C1087.62 668.139 1147.67 663.585 1165.35 653.165V632.71H1053.2V632.71Z" fill="white"/>
<path d="M0.814697 653.165C0.814697 653.165 37.2474 671.073 119.298 669.143L1087.62 668.139C1087.62 668.139 1147.67 663.585 1165.35 653.165H0.814697V653.165Z" fill="url(#paint0_linear_1_447)"/>
<path d="M1045.09 638.808H121.382C116.52 638.808 112.583 634.872 112.583 630.009V8.79943C112.583 3.93659 116.52 0 121.382 0H1045.09C1049.95 0 1053.89 3.93659 1053.89 8.79943V629.931C1053.89 634.872 1049.95 638.808 1045.09 638.808Z" fill="#C9C9C9"/>
<path d="M1050.11 638.808H115.67V9.41691C115.67 6.09782 118.372 3.39624 121.691 3.39624H1044.01C1047.33 3.39624 1050.03 6.09782 1050.03 9.41691V638.808H1050.11Z" fill="#E1E1E1"/>
<path d="M1042.24 638.808H123.466C119.144 638.808 115.67 635.335 115.67 631.012V611.638H1050.11V631.012C1050.11 635.335 1046.56 638.808 1042.24 638.808Z" fill="#E7E7E7"/>
<path d="M1027.34 31.7241H137.592V596.818H1027.34V31.7241Z" fill="white" stroke="black" stroke-width="0.164881" stroke-miterlimit="10"/>
<path d="M1165.43 632.71H0.814697V653.165H1165.43V632.71Z" fill="url(#paint1_linear_1_447)"/>
<path d="M662.316 648.071H503.618C495.127 648.071 488.257 641.201 488.257 632.71H677.677C677.677 641.201 670.807 648.071 662.316 648.071Z" fill="url(#paint2_linear_1_447)"/>
<path opacity="0.8" d="M1053.43 632.71C1053.74 631.861 1053.81 630.935 1053.81 630.009V8.79943C1053.81 3.93659 1049.88 0 1045.01 0H121.305C116.442 0 112.506 3.93659 112.506 8.79943V630.009C112.506 630.935 112.66 631.861 112.892 632.71H0.814697V653.165C0.814697 653.165 37.2474 671.073 119.298 669.143L1087.62 668.139C1087.62 668.139 1147.67 663.585 1165.35 653.165V632.71H1053.43Z" fill="white"/>
<defs>
<linearGradient id="paint0_linear_1_447" x1="583.109" y1="669.258" x2="583.109" y2="653.162" gradientUnits="userSpaceOnUse">
<stop stop-color="#A9A9A9"/>
<stop offset="0.1274" stop-color="#B8B8B8"/>
<stop offset="0.3072" stop-color="#C5C5C5"/>
<stop offset="0.5387" stop-color="#CDCDCD"/>
<stop offset="1" stop-color="#CFCFCF"/>
</linearGradient>
<linearGradient id="paint1_linear_1_447" x1="0.81484" y1="642.925" x2="1165.4" y2="642.925" gradientUnits="userSpaceOnUse">
<stop stop-color="#A9A9A9"/>
<stop offset="0.0256409" stop-color="#F8F8F8"/>
<stop offset="0.347" stop-color="#EFEFEF"/>
<stop offset="0.7299" stop-color="#EEEEEE"/>
<stop offset="0.9726" stop-color="white"/>
<stop offset="1" stop-color="#A9A9A9"/>
</linearGradient>
<linearGradient id="paint2_linear_1_447" x1="488.226" y1="640.366" x2="677.648" y2="640.366" gradientUnits="userSpaceOnUse">
<stop stop-color="#A9A9A9"/>
<stop offset="0.0256409" stop-color="#F8F8F8"/>
<stop offset="0.347" stop-color="#EFEFEF"/>
<stop offset="0.7299" stop-color="#EEEEEE"/>
<stop offset="0.9726" stop-color="white"/>
<stop offset="1" stop-color="#A9A9A9"/>
</linearGradient>
</defs>
</svg>
