<svg width="345" height="536" viewBox="0 0 345 536" fill="none" xmlns="http://www.w3.org/2000/svg">
<path d="M842.185 506.336C842.556 505.472 842.741 504.483 842.741 503.433V7.78314C842.741 3.52094 839.282 0 834.958 0H97.1657C92.9035 0 89.3826 3.45917 89.3826 7.78314V503.433C89.3826 504.483 89.5679 505.41 89.9385 506.336H0V522.706C0 522.706 29.1559 537.037 94.8184 535.492L869.735 534.689C869.735 534.689 917.793 531.045 931.938 522.706V506.336H842.185V506.336Z" fill="white"/>
<path d="M0 522.706C0 522.706 29.1559 537.037 94.8184 535.492L869.735 534.689C869.735 534.689 917.793 531.045 931.938 522.706H0V522.706Z" fill="url(#paint0_linear_1_57)"/>
<path d="M835.699 511.216H96.4862C92.5946 511.216 89.4443 508.066 89.4443 504.174V7.04189C89.4443 3.15032 92.5946 0 96.4862 0H835.699C839.591 0 842.741 3.15032 842.741 7.04189V504.113C842.741 508.066 839.591 511.216 835.699 511.216Z" fill="#C9C9C9"/>
<path d="M839.714 511.216H91.915V7.53591C91.915 4.87976 94.077 2.71777 96.7332 2.71777H834.834C837.49 2.71777 839.652 4.87976 839.652 7.53591V511.216H839.714Z" fill="#E1E1E1"/>
<path d="M833.413 511.216H98.1539C94.6947 511.216 91.915 508.437 91.915 504.977V489.473H839.714V504.977C839.714 508.437 836.873 511.216 833.413 511.216Z" fill="#E7E7E7"/>
<path d="M821.492 25.3879H109.458V477.613H821.492V25.3879Z" fill="white" stroke="black" stroke-width="0.164881" stroke-miterlimit="10"/>
<path d="M932 506.336H0V522.706H932V506.336Z" fill="url(#paint1_linear_1_57)"/>
<path opacity="0.8" d="M842.37 506.336C842.617 505.657 842.679 504.916 842.679 504.174V7.04189C842.679 3.15032 839.529 0 835.637 0H96.4244C92.5329 0 89.3825 3.15032 89.3825 7.04189V504.174C89.3825 504.916 89.5061 505.657 89.6914 506.336H0V522.706C0 522.706 29.1559 537.036 94.8184 535.492L869.735 534.689C869.735 534.689 917.793 531.045 931.938 522.706V506.336H842.37Z" fill="white"/>
<defs>
<linearGradient id="paint0_linear_1_57" x1="465.99" y1="535.585" x2="465.99" y2="522.703" gradientUnits="userSpaceOnUse">
<stop stop-color="#A9A9A9"/>
<stop offset="0.1274" stop-color="#B8B8B8"/>
<stop offset="0.3072" stop-color="#C5C5C5"/>
<stop offset="0.5387" stop-color="#CDCDCD"/>
<stop offset="1" stop-color="#CFCFCF"/>
</linearGradient>
<linearGradient id="paint1_linear_1_57" x1="0.000113841" y1="514.511" x2="931.981" y2="514.511" gradientUnits="userSpaceOnUse">
<stop stop-color="#A9A9A9"/>
<stop offset="0.0256409" stop-color="#F8F8F8"/>
<stop offset="0.347" stop-color="#EFEFEF"/>
<stop offset="0.7299" stop-color="#EEEEEE"/>
<stop offset="0.9726" stop-color="white"/>
<stop offset="1" stop-color="#A9A9A9"/>
</linearGradient>
</defs>
</svg>
