<svg width="29" height="28" viewBox="0 0 29 28" fill="none" xmlns="http://www.w3.org/2000/svg">
<path d="M14.4938 2.5C18.1938 2.5 18.5938 2.5 19.9938 2.6C21.2938 2.7 22.0938 2.9 22.5938 3.1C23.1938 3.3 23.6938 3.6 24.1938 4.1C24.6938 4.6 24.9938 5 25.1938 5.7C25.3938 6.2 25.5938 6.9 25.6938 8.3C25.7938 9.7 25.7938 10.2 25.7938 13.8C25.7938 17.4 25.7938 17.9 25.6938 19.3C25.5938 20.6 25.3938 21.4 25.1938 21.9C24.9938 22.5 24.6938 23 24.1938 23.5C23.6938 24 23.2938 24.3 22.5938 24.5C22.0938 24.7 21.3938 24.9 19.9938 25C18.5938 25.1 18.0938 25.1 14.4938 25.1C10.8938 25.1 10.3938 25.1 8.9938 25C7.6938 24.9 6.8938 24.7 6.3938 24.5C5.7938 24.3 5.29382 24 4.79382 23.5C4.29382 23 3.99382 22.6 3.79382 21.9C3.59382 21.4 3.39382 20.7 3.29382 19.3C3.19382 17.9 3.19382 17.4 3.19382 13.8C3.19382 10.2 3.19382 9.7 3.29382 8.3C3.39382 7 3.59382 6.2 3.79382 5.7C3.99382 5.1 4.29382 4.6 4.79382 4.1C5.29382 3.6 5.6938 3.3 6.3938 3.1C6.8938 2.9 7.5938 2.7 8.9938 2.6C10.3938 2.5 10.7938 2.5 14.4938 2.5ZM14.4938 0C10.7938 0 10.2938 0 8.79382 0.1C7.29382 0.2 6.29381 0.4 5.4938 0.7C4.5938 1.1 3.79381 1.5 3.09381 2.3C2.29381 3.1 1.8938 3.8 1.4938 4.7C1.1938 5.6 0.893799 6.6 0.893799 8C0.793799 9.5 0.793823 9.9 0.793823 13.7C0.793823 17.4 0.793799 17.9 0.893799 19.4C0.993799 20.9 1.1938 21.9 1.4938 22.7C1.8938 23.6 2.29381 24.4 3.09381 25.1C3.89381 25.9 4.5938 26.3 5.4938 26.7C6.39381 27 7.39382 27.3 8.79382 27.3C10.2938 27.4 10.6938 27.4 14.4938 27.4C18.1938 27.4 18.6938 27.4 20.1938 27.3C21.6938 27.2 22.6938 27 23.4938 26.7C24.3938 26.3 25.1938 25.9 25.8938 25.1C26.6938 24.3 27.0938 23.6 27.4938 22.7C27.7938 21.8 28.0938 20.8 28.0938 19.4C28.1938 17.9 28.1938 17.5 28.1938 13.7C28.1938 9.9 28.1938 9.5 28.0938 8C27.9938 6.5 27.7938 5.5 27.4938 4.7C27.0938 3.8 26.6938 3 25.8938 2.3C25.0938 1.5 24.3938 1.1 23.4938 0.7C22.5938 0.4 21.5938 0.1 20.1938 0.1C18.6938 0 18.1938 0 14.4938 0Z" fill="#079C72"/>
<path d="M14.4938 6.7002C10.5938 6.7002 7.3938 9.9002 7.3938 13.8002C7.3938 17.7002 10.5938 20.9002 14.4938 20.9002C18.3938 20.9002 21.5938 17.7002 21.5938 13.8002C21.5938 9.9002 18.3938 6.7002 14.4938 6.7002ZM14.4938 18.3002C11.9938 18.3002 9.8938 16.3002 9.8938 13.7002C9.8938 11.2002 11.8938 9.1002 14.4938 9.1002C16.9938 9.1002 19.0938 11.1002 19.0938 13.7002C19.0938 16.3002 16.9938 18.3002 14.4938 18.3002Z" fill="#079C72"/>
<path d="M21.7939 7.9998C22.6775 7.9998 23.3938 7.28346 23.3938 6.3998C23.3938 5.51615 22.6775 4.7998 21.7939 4.7998C20.9102 4.7998 20.1938 5.51615 20.1938 6.3998C20.1938 7.28346 20.9102 7.9998 21.7939 7.9998Z" fill="#079C72"/>
</svg>
