<svg width="25" height="23" viewBox="0 0 25 23" fill="none" xmlns="http://www.w3.org/2000/svg">
<path d="M24.9939 14.0006V22.9006H19.8939V14.6006C19.8939 12.5006 19.1939 11.1006 17.2939 11.1006C15.8939 11.1006 14.9939 12.1006 14.6939 13.0006C14.5939 13.3006 14.4939 13.8006 14.4939 14.3006V22.9006H9.39392C9.39392 22.9006 9.49392 8.90059 9.39392 7.50059H14.4939V9.70059C15.1939 8.60059 16.3939 7.10059 19.0939 7.10059C22.3939 7.10059 24.9939 9.30059 24.9939 14.0006Z" fill="#079C72"/>
<path d="M3.89384 0C2.09387 0 0.993896 1.2 0.993896 2.7C0.993896 4.2 2.09387 5.4 3.79384 5.4C5.59381 5.4 6.69379 4.2 6.69379 2.7C6.79379 1.1 5.6938 0 3.89384 0Z" fill="#079C72"/>
<path d="M6.39388 7.40039H1.29388V22.8004H6.39388V7.40039Z" fill="#079C72"/>
</svg>
