<svg width="228" height="30" viewBox="0 0 228 30" fill="none" xmlns="http://www.w3.org/2000/svg">
<path d="M0 29.0454V0.634033H17.6531V8.51948H8.1232V12.2046H17.455V20.0703H8.1232V29.0454H0Z" fill="white"/>
<path d="M24.6601 22.3883C23.3261 20.1033 22.6591 17.5871 22.6591 14.8397C22.6591 12.0923 23.3261 9.58274 24.6601 7.31088C25.9942 5.02582 27.8104 3.23607 30.1086 1.94164C32.4201 0.647214 34.9561 0 37.7167 0C40.4773 0 43.0067 0.647214 45.305 1.94164C47.6164 3.23607 49.4392 5.02582 50.7733 7.31088C52.1073 9.58274 52.7743 12.0923 52.7743 14.8397C52.7743 17.5871 52.1073 20.1033 50.7733 22.3883C49.4392 24.6602 47.6164 26.4499 45.305 27.7576C43.0067 29.052 40.4773 29.6992 37.7167 29.6992C34.9561 29.6992 32.4201 29.052 30.1086 27.7576C27.8104 26.4499 25.9942 24.6602 24.6601 22.3883ZM32.7437 9.90634C31.4361 11.214 30.7823 12.8584 30.7823 14.8397C30.7823 16.821 31.4361 18.4654 32.7437 19.7731C34.0514 21.0807 35.709 21.7345 37.7167 21.7345C39.7244 21.7345 41.382 21.0807 42.6897 19.7731C43.9973 18.4654 44.6511 16.821 44.6511 14.8397C44.6511 12.8584 43.9973 11.214 42.6897 9.90634C41.382 8.59871 39.7244 7.94489 37.7167 7.94489C35.709 7.94489 34.0514 8.59871 32.7437 9.90634Z" fill="white"/>
<path d="M58.6104 29.0059V0.594482H69.9828C72.0169 0.594482 73.8463 0.99734 75.4709 1.80306C77.0956 2.60877 78.3768 3.77772 79.3146 5.3099C80.2656 6.82887 80.7411 8.5856 80.7411 10.5801C80.7411 12.2708 80.3515 13.7897 79.5722 15.137C78.7929 16.4843 77.7164 17.574 76.3427 18.4061L81.9497 29.0059H73.2717L68.7544 20.0704H66.7336V29.0059H58.6104ZM66.7336 13.334H69.8243C69.8772 13.334 69.9234 13.334 69.963 13.334C70.7555 13.334 71.3895 13.1161 71.865 12.6802C72.367 12.2179 72.6179 11.5707 72.6179 10.7386C72.6179 9.90645 72.367 9.25263 71.865 8.77712C71.3631 8.30162 70.6829 8.06387 69.8243 8.06387H66.7336V13.334Z" fill="white"/>
<path d="M109.001 29.0454L117.599 14.6812L109.199 0.634033H118.214L122.117 7.13259L125.96 0.634033H134.975L126.614 14.6812L135.173 29.0454H126.158L122.117 22.2299L118.015 29.0454H109.001Z" fill="white"/>
<path d="M139.389 28.2926C138.491 27.3812 138.042 26.2783 138.042 24.9839C138.042 23.6894 138.491 22.5931 139.389 21.695C140.3 20.7836 141.403 20.3279 142.698 20.3279C143.992 20.3279 145.095 20.7836 146.006 21.695C146.918 22.5931 147.373 23.6894 147.373 24.9839C147.373 26.2783 146.918 27.3812 146.006 28.2926C145.095 29.204 143.992 29.6597 142.698 29.6597C141.403 29.6597 140.3 29.204 139.389 28.2926Z" fill="white"/>
<path d="M92.0938 1.99438H104.492V9.32068H92.0938V1.99438Z" fill="#27BA34"/>
<path d="M84.204 4.81226H96.6023V6.50294H84.204V4.81226Z" fill="#27BA34"/>
<path d="M96.6023 18.9014L86.4582 18.9014L86.4582 11.5751L96.6023 11.5751L96.6023 18.9014Z" fill="#F64445"/>
<path d="M104.492 16.0835L84.2039 16.0835L84.2039 14.3928L104.492 14.3928L104.492 16.0835Z" fill="#F64445"/>
<path d="M95.4752 21.719H104.492V29.0453H95.4752V21.719Z" fill="#27BA34"/>
<path d="M84.204 24.5369H96.6023V26.2275H84.204V24.5369Z" fill="#27BA34"/>
<path d="M153.964 26.549C151.904 24.5017 150.874 21.9524 150.874 18.9013C150.874 15.8501 151.904 13.3009 153.964 11.2536C156.038 9.20627 158.62 8.18262 161.711 8.18262C163.719 8.18262 165.548 8.66473 167.199 9.62894C168.864 10.5932 170.145 11.8876 171.043 13.5122L164.703 17.1181C164.399 16.603 163.983 16.1935 163.455 15.8898C162.94 15.5727 162.358 15.4142 161.711 15.4142C160.76 15.4142 159.968 15.7445 159.334 16.4049C158.7 17.0653 158.383 17.8974 158.383 18.9013C158.383 19.9051 158.7 20.7373 159.334 21.3977C159.968 22.0581 160.76 22.3883 161.711 22.3883C162.372 22.3883 162.966 22.2298 163.494 21.9128C164.023 21.5826 164.426 21.1599 164.703 20.6448L171.043 24.2903C170.145 25.9282 168.864 27.2292 167.199 28.1934C165.548 29.1444 163.719 29.6199 161.711 29.6199C158.62 29.6199 156.038 28.5963 153.964 26.549Z" fill="white"/>
<path d="M171.558 18.9013C171.558 16.9068 172.04 15.0906 173.004 13.4528C173.982 11.8017 175.303 10.5139 176.967 9.58932C178.631 8.65152 180.467 8.18262 182.475 8.18262C184.483 8.18262 186.319 8.65152 187.983 9.58932C189.647 10.5139 190.961 11.8017 191.926 13.4528C192.903 15.0906 193.392 16.9068 193.392 18.9013C193.392 20.8958 192.903 22.7185 191.926 24.3696C190.961 26.0074 189.647 27.2953 187.983 28.2331C186.319 29.1576 184.483 29.6199 182.475 29.6199C180.996 29.6199 179.582 29.3492 178.235 28.8076C176.901 28.2529 175.739 27.5 174.748 26.549C173.771 25.598 172.991 24.462 172.41 23.1412C171.842 21.8071 171.558 20.3938 171.558 18.9013ZM180.018 16.3454C179.384 17.0059 179.067 17.8578 179.067 18.9013C179.067 19.9447 179.384 20.8033 180.018 21.4769C180.665 22.1374 181.484 22.4676 182.475 22.4676C183.466 22.4676 184.278 22.1374 184.912 21.4769C185.559 20.8033 185.883 19.9447 185.883 18.9013C185.883 17.8578 185.559 17.0059 184.912 16.3454C184.278 15.6718 183.466 15.335 182.475 15.335C181.484 15.335 180.665 15.6718 180.018 16.3454Z" fill="white"/>
<path d="M195.749 29.0454V8.75719H203.258V10.6592C204.579 9.00815 206.415 8.18262 208.766 8.18262C211.091 8.18262 212.782 9.02135 213.838 10.6988C215.291 9.02135 217.24 8.18262 219.683 8.18262C222.047 8.18262 223.89 8.92229 225.211 10.4016C226.532 11.8678 227.192 13.9679 227.192 16.7021V29.0454H219.683V17.7323C219.683 17.0059 219.511 16.4379 219.168 16.0284C218.825 15.619 218.309 15.4142 217.623 15.4142C216.804 15.4142 216.196 15.6916 215.8 16.2464C215.417 16.8011 215.225 17.521 215.225 18.406V29.0454H207.716V17.7323C207.716 17.0059 207.545 16.4379 207.201 16.0284C206.858 15.619 206.343 15.4142 205.656 15.4142C204.837 15.4142 204.229 15.6916 203.833 16.2464C203.45 16.8011 203.258 17.521 203.258 18.406V29.0454H195.749Z" fill="white"/>
</svg>
