<svg width="118" height="113" viewBox="0 0 118 113" fill="none" xmlns="http://www.w3.org/2000/svg">
<path d="M64.5 113C94.0472 113 118 89.0472 118 59.5C118 29.9528 94.0472 6 64.5 6C34.9528 6 11 29.9528 11 59.5C11 89.0472 34.9528 113 64.5 113Z" fill="#49D4A2"/>
<path d="M19.5 39C30.2696 39 39 30.2696 39 19.5C39 8.73045 30.2696 0 19.5 0C8.73045 0 0 8.73045 0 19.5C0 30.2696 8.73045 39 19.5 39Z" fill="#079C72"/>
<path d="M19.7864 15.7159C18.1517 15.7159 16.9152 16.3865 16.1188 17.4763V11.7967H13.8553V26.4673H16.1188V24.9583C16.9152 26.0691 18.1517 26.7397 19.7864 26.7397C22.6367 26.7397 25.005 24.3296 25.005 21.2278C25.005 18.1051 22.6367 15.7159 19.7864 15.7159ZM19.4301 24.5811C17.5439 24.5811 16.1188 23.1769 16.1188 21.2278C16.1188 19.2787 17.5439 17.8745 19.4301 17.8745C21.3164 17.8745 22.7415 19.2787 22.7415 21.2278C22.7415 23.1769 21.3164 24.5811 19.4301 24.5811Z" fill="white"/>
<path d="M65.2415 80.4195V85.7544H64.0983V80.4784H63.9257C57.4041 80.4784 52.4285 77.6071 51 72.6235L51.9731 72.0365C53.2889 76.9612 57.9794 79.4223 63.9281 79.4223H64.1007V59.5516C58.1495 57.5596 52.601 55.4497 52.601 48.592C52.601 42.8469 57.5192 38.2759 64.0983 38.2759V33H65.2415V38.3349C70.2747 38.6272 73.9921 41.1472 75.5931 45.3694L74.6799 45.8951C73.3641 42.3188 70.2747 39.7398 65.2415 39.3886V58.7902C71.4755 61.0179 76.7388 63.2457 76.7388 69.8111C76.7388 75.7896 72.3335 79.9504 65.2415 80.4195ZM64.0983 58.4389V39.3296C57.5767 39.3296 53.7467 43.9596 53.7467 48.592C53.7443 54.7472 59.0076 56.6213 64.0983 58.4389ZM75.5955 69.8111C75.5955 64.125 71.0776 61.9562 65.2439 59.9642V79.3658C72.2209 78.8967 75.5955 74.7334 75.5955 69.8111Z" fill="#079C72" stroke="#079C72" stroke-miterlimit="10"/>
</svg>
