<svg width="117" height="117" viewBox="0 0 117 117" fill="none" xmlns="http://www.w3.org/2000/svg">
<path d="M63.5 117C93.0472 117 117 93.0472 117 63.5C117 33.9528 93.0472 10 63.5 10C33.9528 10 10 33.9528 10 63.5C10 93.0472 33.9528 117 63.5 117Z" fill="#49D4A2"/>
<path d="M53.2401 48.0394V52.0771C53.2401 57.0325 57.0484 61.3456 62.0038 61.5291C67.1427 61.6209 71.364 57.5373 71.364 52.4442V48.0394C71.364 43.0381 67.3262 39.0004 62.325 39.0004C57.2778 38.9545 53.2401 43.0381 53.2401 48.0394Z" stroke="#079C72" stroke-width="2" stroke-miterlimit="10"/>
<path d="M42 84.5921L47 66.1633L56.6355 63.3644C59.7556 66.4844 64.7569 66.4844 67.8769 63.3644L77.5124 66.1633L82.5124 84.5921H42Z" stroke="#079C72" stroke-width="2" stroke-miterlimit="10" stroke-linejoin="bevel"/>
<path d="M19.5 39C30.2696 39 39 30.2696 39 19.5C39 8.73045 30.2696 0 19.5 0C8.73045 0 0 8.73045 0 19.5C0 30.2696 8.73045 39 19.5 39Z" fill="#079C72"/>
<path d="M22.0192 14.521V16.009C21.2228 14.9192 19.9863 14.2486 18.3515 14.2486C15.5013 14.2486 13.133 16.6378 13.133 19.7605C13.133 22.8623 15.5013 25.2725 18.3515 25.2725C19.9863 25.2725 21.2228 24.6018 22.0192 23.491V25H24.2826V14.521H22.0192ZM18.7078 23.1138C16.8216 23.1138 15.3965 21.7096 15.3965 19.7605C15.3965 17.8114 16.8216 16.4072 18.7078 16.4072C20.594 16.4072 22.0192 17.8114 22.0192 19.7605C22.0192 21.7096 20.594 23.1138 18.7078 23.1138Z" fill="white"/>
</svg>
