<svg width="119" height="112" viewBox="0 0 119 112" fill="none" xmlns="http://www.w3.org/2000/svg">
<path d="M65.5 112C95.0472 112 119 88.0472 119 58.5C119 28.9528 95.0472 5 65.5 5C35.9528 5 12 28.9528 12 58.5C12 88.0472 35.9528 112 65.5 112Z" fill="#49D4A2"/>
<path d="M64.5 60.9963L89.6964 52.9629C94.2172 66.6183 86.6028 81.2813 72.6867 85.7208C58.7706 90.157 43.8279 82.6851 39.3036 69.0297C34.7828 55.3742 42.3972 40.7079 56.3133 36.2717C59.0972 35.3865 61.5747 35 64.5 35V60.9963Z" stroke="#05A678" stroke-width="2" stroke-miterlimit="10" stroke-linecap="round" stroke-linejoin="round"/>
<path d="M71 50.9963V25C82.4853 25 92.1736 32.0391 95.7245 42.9629L71 50.9963Z" stroke="#05A678" stroke-width="2" stroke-miterlimit="10" stroke-linecap="round" stroke-linejoin="round"/>
<path d="M19.5 39C30.2696 39 39 30.2696 39 19.5C39 8.73045 30.2696 0 19.5 0C8.73045 0 0 8.73045 0 19.5C0 30.2696 8.73045 39 19.5 39Z" fill="#079C72"/>
<path d="M19.5869 25.2725C21.6408 25.2725 23.4222 24.2036 24.3024 22.5479L22.3534 21.4371C21.8504 22.4012 20.8234 23.0509 19.5659 23.0509C17.7216 23.0509 16.3175 21.6467 16.3175 19.7605C16.3175 17.8743 17.7216 16.4701 19.5659 16.4701C20.8234 16.4701 21.8504 17.0989 22.3114 18.0839L24.2605 16.9521C23.4222 15.3174 21.6408 14.2486 19.5869 14.2486C16.4223 14.2486 14.054 16.6378 14.054 19.7605C14.054 22.8623 16.4223 25.2725 19.5869 25.2725Z" fill="white"/>
</svg>
