<svg width="24" height="20" viewBox="0 0 24 20" fill="none" xmlns="http://www.w3.org/2000/svg">
<path d="M23.9939 2.2C23.0939 2.6 22.1938 2.9 21.1938 3C22.1938 2.4 22.9939 1.4 23.2939 0.3C22.3939 0.9 21.2938 1.3 20.1938 1.5C19.2938 0.6 18.0938 0 16.6938 0C13.9938 0 11.7939 2.2 11.7939 4.9C11.7939 5.3 11.7938 5.7 11.8938 6C7.89384 5.8 4.29384 3.9 1.89384 0.9C1.49384 1.6 1.19385 2.5 1.19385 3.3C1.19385 5 2.09384 6.5 3.39384 7.3C2.59384 7.3 1.89385 7.1 1.19385 6.7V6.8C1.19385 9.2 2.89386 11.1 5.09386 11.6C4.69386 11.7 4.29385 11.8 3.79385 11.8C3.49385 11.8 3.19384 11.8 2.89384 11.7C3.49384 13.6 5.29384 15 7.39384 15.1C5.69384 16.4 3.59384 17.2 1.39384 17.2C0.993845 17.2 0.593848 17.2 0.193848 17.1C2.39385 18.5 4.89386 19.3 7.59386 19.3C16.4939 19.3 21.3938 11.9 21.3938 5.5V4.9C22.4938 4 23.2938 3.2 23.9939 2.2Z" fill="#079C72"/>
</svg>
